<svg version="1.1" xmlns="http://www.w3.org/2000/svg" xmlns:xlink="http://www.w3.org/1999/xlink" width="368.25322" height="463.79221" viewBox="0,0,368.25322,463.79221"><g transform="translate(-28.95992,52.16631)"><g data-paper-data="{&quot;isPaintingLayer&quot;:true}" stroke-miterlimit="10" stroke-dasharray="" stroke-dashoffset="0" style="mix-blend-mode: normal"><g fill-rule="evenodd"><path d="M182.35029,294.61935c27.02664,-22.39795 46.90892,-77.31583 46.90892,-77.31583l34.50144,16.96818c0,0 -30.12006,75.3786 -79.67794,98.11659c-38.42525,17.63016 -78.62631,-7.96653 -91.89173,-17.41989c-30.37412,-21.64557 -47.54189,-47.316 -49.42753,-51.53093c-7.83373,-16.09716 -12.28003,-38.62259 -12.80352,-58.05086c-0.6814,-59.70594 55.5919,-106.60572 75.84861,-91.00773c20.021,15.07111 -18.6482,43.11999 -31.50086,83.64721c-5.93414,17.83031 -3.31361,34.9951 -0.29101,48.81842c2.54384,10.13162 14.09338,33.85627 37.77114,46.25749c16.25594,8.51405 26.71296,15.74403 39.21478,14.90595c12.37563,-0.82962 26.85541,-9.66569 31.3477,-13.38861z" fill="#d00000" stroke="#001026" stroke-width="2" stroke-linecap="round" stroke-linejoin="round"/><path d="M100.18009,149.0333c-10.45411,14.79391 -24.67104,40.37102 -24.67104,40.37102c0,0 -4.73703,-23.30914 -18.64357,-30.36635c-10.85625,-5.89256 -14.37695,-1.50012 -14.37695,-1.50012c0,0 4.31334,-6.30685 6.36601,-9.66513c1.92278,-3.14577 6.58583,-9.63872 6.58583,-9.63872c0,0 6.12662,-7.46741 6.9972,-8.19915c8.95663,-7.52824 19.32121,-16.06412 29.54928,-17.22308c8.13831,-0.92217 12.03686,0.21377 15.52648,4.2563c0.84627,1.19028 1.75201,1.85631 2.23554,3.01225c3.41405,8.1618 -2.2576,16.82023 -9.56878,28.95298z" fill="#ffffff" stroke="none" stroke-width="1" stroke-linecap="butt" stroke-linejoin="miter"/></g><path d="M278.15353,0.94363c0,0 10.63208,-5.01379 19.4489,-16.07573c8.32188,-10.44097 15.48669,-27.68964 15.48669,-27.68964c0,0 6.06974,19.11277 2.73748,32.38764c-3.5722,14.23075 -15.95735,23.7347 -15.95735,23.7347z" fill="#d00000" fill-rule="nonzero" stroke="#000000" stroke-width="2" stroke-linecap="butt" stroke-linejoin="miter"/><path d="M182.11018,13.3006c0,0 -12.38515,-9.50395 -15.95735,-23.7347c-3.33225,-13.27487 2.73748,-32.38764 2.73748,-32.38764c0,0 7.16481,17.24867 15.48669,27.68964c8.81682,11.06194 19.4489,16.07572 19.4489,16.07572z" data-paper-data="{&quot;index&quot;:null}" fill="#d00000" fill-rule="nonzero" stroke="#000000" stroke-width="2" stroke-linecap="butt" stroke-linejoin="miter"/><path d="M118.41874,263.06577c-16.59728,0 -30.05205,-13.45475 -30.05205,-30.05205c0,-16.59728 13.45475,-30.05205 30.05205,-30.05205c16.59728,0 30.05205,13.45475 30.05205,30.05205c0,16.59728 -13.45475,30.05205 -30.05205,30.05205z" data-paper-data="{&quot;index&quot;:null}" fill="#d00000" fill-rule="nonzero" stroke="#000000" stroke-width="2" stroke-linecap="butt" stroke-linejoin="miter"/><path d="M117.84549,155.0542c14.56685,0 29.37123,-14.04345 33.68681,3.45349c0.38405,1.55705 -0.07641,20.16915 -0.07641,22.89012c0,21.54196 -15.45386,45.49698 -33.6104,45.49698c-18.15653,0 -33.36537,-23.95502 -33.36537,-45.49698c0,-2.0059 -0.73,-18.00891 -0.48386,-20.05238c2.39716,-19.90199 17.38334,-6.29123 33.84923,-6.29123z" data-paper-data="{&quot;index&quot;:null}" fill="#d00000" fill-rule="nonzero" stroke="#000000" stroke-width="2" stroke-linecap="butt" stroke-linejoin="miter"/><path d="M139.35986,222.37724c0,0 -12.35176,10.42348 -20.12596,10.38402c-6.77317,-0.03439 -23.93143,-10.60766 -23.93143,-10.60766l4.92011,-6.03832l33.32258,0.67093l5.8147,5.59104z" data-paper-data="{&quot;index&quot;:null}" fill="#d00000" fill-rule="nonzero" stroke="none" stroke-width="0.5" stroke-linecap="butt" stroke-linejoin="miter"/><path d="M148.55176,175.23678c-4.54345,8.31011 -14.70407,6.41026 -23.32592,5.03917c-2.68531,-0.42703 -5.22138,-0.80277 -7.39196,-0.80277c-8.63097,0 -24.44861,8.07844 -30.31412,-1.83667c-6.47348,-10.94284 -2.56119,-20.36165 -2.56119,-34.84441c0,-20.70112 4.94687,-48.60262 13.33546,-62.14872c6.38479,-10.3103 23.21533,-25.26812 23.21533,-25.26812c0,0 19.58674,34.48884 27.6041,63.32209c2.44817,8.8045 5.31666,45.78774 -0.56169,56.53943z" data-paper-data="{&quot;index&quot;:null}" fill="#d00000" fill-rule="nonzero" stroke="#000000" stroke-width="2" stroke-linecap="butt" stroke-linejoin="miter"/><path d="M94.25514,179.41033c6.99335,3.10459 13.039,-2.12049 19.89411,-3.13644c6.63808,-0.98379 13.77492,1.91389 20.44735,2.16768c3.22,0.12248 4.88777,0.39497 7.40052,-1.62141c0,0 1.07265,-0.78011 2.31958,-0.60776c-0.01642,-3.95661 -0.32447,-7.88047 -0.63157,-11.87221l-0.00902,-2.93026c0,0 0,-3.06289 3.06289,-3.06289c3.06289,0 3.87966,3.06289 3.87966,3.06289l-0.00902,2.46044c0.45424,5.90598 0.06751,11.67138 -0.32447,17.59086c0,0 -0.20374,3.05611 -3.25985,2.85236c-1.59073,-0.10605 -2.29829,-0.98489 -2.61107,-1.8033c-5.18053,2.89965 -11.30437,2.40566 -17.24256,1.53109c-3.81012,-0.56115 -8.12522,-2.35529 -12.0412,-1.72081c-8.50743,1.3784 -14.34856,6.28282 -23.23144,2.74433l-2.4098,-0.9636c0,0 -1.20323,-0.48129 -1.73131,-1.60041c-2.1543,-0.53623 -2.1543,-2.95865 -2.1543,-2.95865l0.00903,-2.93026l0.0797,-1.03612c-0.08873,-0.40033 -0.08873,-0.68924 -0.08873,-0.68924c0,-2.20528 0,-4.41057 0,-6.61585l0.2867,-1.97373c0,0 0.50354,-3.02123 3.52477,-2.51769c3.02123,0.50354 2.51769,3.52475 2.51769,3.52475l-0.20336,0.96665c0,1.39609 0,2.79218 0,4.18829c0.08394,0.19644 0.14793,0.40343 0.18943,0.61844l0.30723,1.43377c1.07901,0.96821 0.96574,2.55384 0.96574,2.55384l-0.13331,1.86638z" fill="#d00000" fill-rule="nonzero" stroke="none" stroke-width="0.5" stroke-linecap="butt" stroke-linejoin="miter"/><path d="M331.52932,236.07662c0,-16.5973 13.45477,-30.05205 30.05205,-30.05205c16.5973,0 30.05205,13.45477 30.05205,30.05205c0,16.5973 -13.45477,30.05205 -30.05205,30.05205c-16.5973,0 -30.05205,-13.45477 -30.05205,-30.05205z" data-paper-data="{&quot;index&quot;:null}" fill="#d00000" fill-rule="nonzero" stroke="#000000" stroke-width="2" stroke-linecap="butt" stroke-linejoin="miter"/><path d="M396.00387,164.40833c0.24613,2.04346 -0.48385,18.04647 -0.48385,20.05238c0,21.54196 -15.20884,45.49698 -33.36537,45.49698c-18.15654,0 -33.6104,-23.95502 -33.6104,-45.49698c0,-2.72098 -0.46046,-21.33307 -0.07641,-22.89012c4.31558,-17.49694 19.11996,-23.68883 33.68681,-23.68883c16.46587,0 31.45206,6.62459 33.84923,26.52657z" data-paper-data="{&quot;index&quot;:null}" fill="#d00000" fill-rule="nonzero" stroke="#000000" stroke-width="2" stroke-linecap="butt" stroke-linejoin="miter"/><path d="M340.64027,225.44014l5.8147,-5.59104l33.32258,-0.67093l4.92011,6.03831c0,0 -17.15826,10.57327 -23.93143,10.60766c-7.7742,0.03946 -20.12596,-10.38402 -20.12596,-10.38402z" data-paper-data="{&quot;index&quot;:null}" fill="#d00000" fill-rule="nonzero" stroke="none" stroke-width="0.5" stroke-linecap="butt" stroke-linejoin="miter"/><path d="M330.8866,121.76025c8.01736,-28.83325 27.6041,-63.32209 27.6041,-63.32209c0,0 16.83055,14.95781 23.21533,25.26812c8.38859,13.54609 13.33546,41.44761 13.33546,62.14873c0,14.48277 3.91228,23.90158 -2.56119,34.84441c-5.8655,9.91513 -21.68316,1.83667 -30.31412,1.83667c-2.17059,0 -4.70664,0.37574 -7.39196,0.80277c-8.62185,1.37107 -18.78246,3.27094 -23.32592,-5.03917c-5.87836,-10.75169 -3.00987,-47.73493 -0.5617,-56.53943z" data-paper-data="{&quot;index&quot;:null}" fill="#d00000" fill-rule="nonzero" stroke="#000000" stroke-width="2" stroke-linecap="butt" stroke-linejoin="miter"/><path d="M386.94161,181.99441l-0.13331,-1.86638c0,0 -0.11325,-1.58564 0.96574,-2.55384l0.30723,-1.43377c0.04151,-0.21502 0.1055,-0.42201 0.18943,-0.61844c0,-1.39609 0,-2.79218 0,-4.18829l-0.20336,-0.96665c0,0 -0.50354,-3.02123 2.51767,-3.52475c3.02121,-0.50354 3.52477,2.51769 3.52477,2.51769l0.2867,1.97373c0,2.20528 0,4.41057 0,6.61585c0,0 -0.00001,0.28889 -0.08873,0.68924l0.0797,1.03612l0.00903,2.93026c0,0 0,2.42242 -2.1543,2.95865c-0.52809,1.11911 -1.73132,1.60041 -1.73132,1.60041l-2.4098,0.9636c-8.88288,3.53849 -14.72399,-1.36593 -23.23144,-2.74433c-3.91598,-0.63448 -8.23109,1.15966 -12.0412,1.72081c-5.93819,0.87457 -12.06202,1.36856 -17.24255,-1.53109c-0.31279,0.81841 -1.02034,1.69725 -2.61107,1.8033c-3.05611,0.20374 -3.25985,-2.85236 -3.25985,-2.85236c-0.39196,-5.91948 -0.7787,-11.68488 -0.32447,-17.59086l-0.00902,-2.46044c0,0 0.81676,-3.06289 3.87966,-3.06289c3.06289,0 3.06289,3.06289 3.06289,3.06289l-0.00902,2.93026c-0.30711,3.99174 -0.61515,7.9156 -0.63157,11.87221c1.24693,-0.17234 2.31958,0.60776 2.31958,0.60776c2.51274,2.01638 4.18051,1.74389 7.40052,1.62141c6.67243,-0.2538 13.80928,-3.15147 20.44735,-2.16768c6.85511,1.01595 12.90077,6.24103 19.89411,3.13644z" data-paper-data="{&quot;index&quot;:null}" fill="#d00000" fill-rule="nonzero" stroke="none" stroke-width="0.5" stroke-linecap="butt" stroke-linejoin="miter"/><path d="M247.23224,283.84321v-77.43851c0,0 0.68017,-47.87802 34.90711,-47.41664c29.80986,0.40184 36.56499,47.41664 36.56499,47.41664v77.43851z" fill="#d00000" fill-rule="nonzero" stroke="#000000" stroke-width="2" stroke-linecap="butt" stroke-linejoin="miter"/><path d="M160.88834,283.84321v-77.43851c0,0 0.36785,-47.41664 34.50529,-47.41664c31.32458,0 36.96683,47.41665 36.96683,47.41665v77.43851z" fill="#d00000" fill-rule="nonzero" stroke="#000000" stroke-width="2" stroke-linecap="butt" stroke-linejoin="miter"/><path d="M160.88834,366.95047v-82.97901h71.47212v82.97901z" fill="#d00000" fill-rule="nonzero" stroke="#000000" stroke-width="2" stroke-linecap="butt" stroke-linejoin="miter"/><path d="M247.23224,366.95047v-82.97901h71.47211v82.97901z" fill="#d00000" fill-rule="nonzero" stroke="#000000" stroke-width="2" stroke-linecap="butt" stroke-linejoin="miter"/><path d="M283.21342,251.54997c19.25204,0 34.85891,15.60687 34.85891,34.85891c0,19.25204 -15.60687,34.8589 -34.8589,34.8589c-19.25204,0 -34.8589,-15.60685 -34.8589,-34.8589c0,-19.25204 15.60687,-34.85891 34.85891,-34.85891z" fill="#d00000" fill-rule="nonzero" stroke="#000000" stroke-width="0" stroke-linecap="butt" stroke-linejoin="miter"/><path d="M196.87417,249.58677c19.25204,0 34.85891,15.60687 34.85891,34.85891c0,19.25204 -15.60687,34.85891 -34.8589,34.85891c-19.25204,0 -34.85891,-15.60687 -34.85891,-34.8589c0,-19.25204 15.60687,-34.8589 34.85891,-34.8589z" fill="#d00000" fill-rule="nonzero" stroke="#000000" stroke-width="0" stroke-linecap="butt" stroke-linejoin="miter"/><path d="M283.21342,333.15577c19.25204,0 34.85891,15.60687 34.85891,34.85891c0,19.25204 -15.60687,35.35891 -34.8589,35.35891c-19.25204,0 -34.8589,-16.10687 -34.8589,-35.35891c0,-19.25204 15.60687,-34.8589 34.85891,-34.8589z" fill="#d00000" fill-rule="nonzero" stroke="#000000" stroke-width="0" stroke-linecap="butt" stroke-linejoin="miter"/><path d="M196.87417,332.69408c19.25204,0 34.85891,15.60687 34.85891,34.85891c0,19.25204 -15.60687,34.85891 -34.8589,34.85891c-19.25204,0 -34.85891,-15.60687 -34.85891,-34.8589c0,-19.25204 15.60687,-34.8589 34.85891,-34.8589z" fill="#d00000" fill-rule="nonzero" stroke="#000000" stroke-width="0" stroke-linecap="butt" stroke-linejoin="miter"/><path d="M247.17731,410.62586v-44.27217l71.47973,-23.72834l0.15526,26.79125c0,0 16.72813,3.0656 25.88251,11.87289c9.15438,8.80728 16.3402,29.15173 16.3402,29.15173l-44.7856,0.18468z" data-paper-data="{&quot;index&quot;:null}" fill="#d00000" fill-rule="nonzero" stroke="#000000" stroke-width="2" stroke-linecap="butt" stroke-linejoin="miter"/><path d="M160.88834,410.35101l-44.7856,-0.18468c0,0 7.18583,-19.34444 16.3402,-28.15173c9.15438,-8.80728 28.4454,-14.93579 28.4454,-14.93579l0.21949,-5.6503l71.1084,-12.24507l0.14423,17.89536v43.27217z" fill="#d00000" fill-rule="nonzero" stroke="#000000" stroke-width="2" stroke-linecap="butt" stroke-linejoin="miter"/><path d="M319.28461,206.68028l-0.50833,35.37453c0,0 -15.18222,3.8819 -21.83542,7.35445c-7.54043,3.93561 -21.07949,15.04441 -21.07949,15.04441l-30.42804,17.92238l-12.65455,-0.09396l-24.03104,-18.33065c0,0 -18.67553,-10.93143 -26.92756,-14.07207c-7.66303,-2.91646 -20.94858,-4.14908 -20.94858,-4.14908l0.10166,-38.9479z" fill="#9b562d" fill-rule="nonzero" stroke="#000000" stroke-width="2" stroke-linecap="butt" stroke-linejoin="miter"/><path d="M275.69151,264.47241c0,0 -5.58293,10.50867 -10.77259,14.97613c-5.18966,4.46746 -17.42958,7.33375 -17.42958,7.33375l-15.03104,-0.22766c0,0 -7.94777,-2.53927 -13.29831,-7.20613c-5.35055,-4.66684 -10.37337,-15.55907 -10.37337,-15.55907" fill="#9b562d" fill-rule="nonzero" stroke="#000000" stroke-width="2" stroke-linecap="round" stroke-linejoin="miter"/><path d="M324.1556,197.41992c0,38.22993 -37.43661,67.99625 -83.61701,67.99625c-46.18039,0 -84.84216,-32.62502 -84.84216,-70.85496c0,-2.73535 -0.26838,-10.42711 -0.13826,-18.12453c0.11298,-6.68352 0.62691,-13.6728 0.62691,-13.6728c0,0 56.54523,-22.84828 82.75798,-22.73427c26.60295,0.11572 84.79304,22.19837 84.79304,22.19837c0,0 0.41951,17.96178 0.41951,35.19193z" fill="#d00000" fill-rule="nonzero" stroke="#000000" stroke-width="2" stroke-linecap="butt" stroke-linejoin="miter"/><path d="M234.51046,143.29923l-2.21218,0.68958c-3.12615,0.58072 -6.09299,0.53084 -9.19976,1.13897c0,0 -0.8977,0.1708 -1.80572,-0.16451c-0.64682,0.43673 -1.26213,0.9384 -1.98848,1.20756c-3.42206,1.26805 -6.44064,0.11933 -9.8094,0.68718c-2.55859,0.43128 -5.82196,2.53154 -7.9269,3.40773c-0.11418,0.04752 -7.33265,2.37618 -7.57783,2.45536c-2.37521,0.7611 -4.92804,0.90195 -7.27787,1.73814c-1.12173,0.39917 -1.95683,1.41381 -3.07998,1.80895c-1.10866,0.39004 -2.41002,0.03843 -3.48984,0.50239c-2.13862,0.91887 -3.41769,3.30616 -5.55174,4.23558c-2.42804,1.05745 -5.30205,1.21111 -7.93576,1.94915c0.58533,1.10982 1.1924,2.20803 1.82699,3.28988l1.72447,2.33791c0,0 1.81469,2.46743 -0.65274,4.28212c-2.46743,1.81469 -4.28212,-0.65275 -4.28212,-0.65275l-1.9049,-2.59695c-1.3631,-2.31835 -2.62533,-4.69765 -3.80676,-7.11366c0,0 -1.34403,-2.75226 1.40822,-4.09629c0.61872,-0.30214 1.16626,-0.39727 1.64337,-0.3632l0.43324,-0.33425c2.88555,-1.11107 6.36757,-1.14421 9.09816,-2.31745c2.13953,-0.91928 3.43417,-3.27422 5.55457,-4.23679c1.19196,-0.5411 2.63838,-0.21673 3.87228,-0.65382c1.12231,-0.39756 1.95637,-1.41509 3.07998,-1.80895c2.41332,-0.84591 5.02634,-1.00718 7.45783,-1.79936c5.44176,-1.75743 10.88844,-5.11566 16.46281,-6.08936c2.75283,-0.48085 5.8932,0.74445 8.57863,-0.36566c1.98379,-0.82007 4.03107,-1.48342 6.00222,-2.33347c1.02689,-0.44285 1.67919,-1.59939 2.75005,-1.92164c0.65423,-0.19687 6.88148,-0.09444 7.70808,-0.08493c5.40002,0.06205 10.2841,2.04376 15.59248,2.6115c4.26126,0.45575 8.30166,1.11242 12.53226,1.99986c7.29101,1.52941 15.18207,2.3687 22.28311,4.56462c4.50924,1.39443 8.56015,4.03889 12.9328,5.67348c3.944,1.47437 8.63884,2.15532 12.47179,3.89353c0.84183,0.38176 1.28214,1.43689 2.15241,1.74841c1.45083,0.51933 3.05307,0.32408 4.60208,0.42313c0.3414,-0.39522 2.05815,-2.15973 4.23169,-0.49751c2.43298,1.86062 0.57236,4.2936 0.57236,4.2936c-1.12917,1.38307 -1.39149,3.28966 -2.15058,4.90571c-0.19359,0.41213 -3.60098,4.8336 -4.07256,5.45025l-0.95827,0.37293c-0.32255,0.28469 -1.94011,1.57069 -3.66853,0.41345c-0.52315,-0.27352 -1.04067,-0.72945 -1.30358,-1.48936c-0.33782,-0.72972 -0.28137,-1.4171 -0.09432,-1.97702c0.18987,-0.87301 0.67771,-1.40718 1.20657,-1.73403c0.48787,-0.47061 0.92047,-0.87952 1.30407,-1.26718c0.55066,-0.88233 1.03043,-1.75791 1.49376,-2.6317c-1.07527,-0.04956 -2.14202,-0.1314 -3.15423,-0.46925c-1.06078,-0.35406 -1.69682,-1.50716 -2.71355,-1.97285c-3.63684,-1.66575 -8.18922,-2.27335 -11.96139,-3.68678c-4.2933,-1.60869 -8.27248,-4.21738 -12.69103,-5.5936c-6.90556,-2.15085 -14.64174,-2.93549 -21.74024,-4.42452c-7.15428,-1.50073 -14.25119,-2.35695 -21.40486,-3.87628c-0.81025,-0.17209 -1.85946,-0.39167 -3.0079,-0.59488c-0.63905,0.77178 -1.55327,1.06701 -1.55327,1.06701z" fill="#edd096" fill-rule="nonzero" stroke="none" stroke-width="0.5" stroke-linecap="butt" stroke-linejoin="miter"/><path d="M369.57121,84.8226c0,28.61457 -31.87343,48.2084 -51.16076,48.2084c-19.28733,0 -34.92279,-43.19079 -34.92279,-62.47811c0,-19.28731 15.63546,-37.98568 34.92279,-37.98568c19.28733,0 51.16076,23.64087 51.16076,52.25542z" data-paper-data="{&quot;index&quot;:null}" fill="#d00000" fill-rule="nonzero" stroke="#000000" stroke-width="2" stroke-linecap="butt" stroke-linejoin="miter"/><path d="M110.42892,81.75973c0,-28.61455 31.87343,-49.19253 51.16076,-49.19253c19.28733,0 34.92279,15.63547 34.92279,34.92279c0,19.28733 -15.63546,62.47811 -34.92279,62.47811c-19.28733,0 -51.16076,-19.59382 -51.16076,-48.2084z" fill="#d00000" fill-rule="nonzero" stroke="#000000" stroke-width="2" stroke-linecap="butt" stroke-linejoin="miter"/><path d="M157.57376,122.5142v-88.95699h155.40493v88.95699z" fill="#d00000" fill-rule="nonzero" stroke="#000000" stroke-width="0" stroke-linecap="butt" stroke-linejoin="miter"/><path d="M316.77335,123.78188c0,0 7.39541,25.04608 7.63546,41.41882c0.24006,16.37274 -5.58847,45.12802 -5.58847,45.12802l-157.90575,-0.49351c0,0 -5.8175,-19.79193 -5.83166,-44.66571c-0.02073,-29.53986 5.86879,-41.3876 5.86879,-41.3876" fill="#d00000" fill-rule="nonzero" stroke="#000000" stroke-width="2" stroke-linecap="butt" stroke-linejoin="miter"/><path d="M160.02838,32.61071h158.13015" fill="none" fill-rule="nonzero" stroke="#000000" stroke-width="2" stroke-linecap="butt" stroke-linejoin="miter"/><path d="M118.72133,74.5684c0.96857,2.90572 -1.93715,3.87429 -1.93715,3.87429l-0.96856,0.15718c-1.11553,0.81642 -1.99043,1.9168 -2.99278,2.87085l2.03869,0.20387c1.56461,0.13721 2.79183,1.45082 2.79183,3.05107c0,1.01482 -0.49354,1.91435 -1.25368,2.47169l-1.22518,0.91889c0.16616,0.18475 0.30933,0.42299 0.41149,0.72928c4.09552,4.85094 8.63971,9.38408 12.94281,14.04116c5.37338,5.81539 10.66049,11.70006 16.92631,16.54423l1.12556,1.30583l-2.04986,6.86453l-1.24869,2.02395c0,0 -1.12634,1.75784 -2.88419,0.63148c-0.73715,-0.47234 -0.96711,-1.05571 -0.98561,-1.57396c-15.67298,-10.24292 -27.18,-16.40441 -33.62561,-33.98319l-0.24166,-1.04478c-0.54801,-0.20954 -1.12482,-0.68086 -1.22075,-1.72986c-0.00893,-0.09768 -0.01285,-0.1912 -0.01221,-0.28071c-0.44191,-0.29166 -0.84838,-0.76011 -1.14153,-1.49299c-1.13753,-2.84382 1.70629,-3.98135 1.70629,-3.98135c0.34349,-0.13739 0.68707,-0.27456 1.03074,-0.41148c-3.04465,-4.32789 3.58936,-10.04013 6.2326,-12.05917l2.7069,-1.06798c0,0 2.90571,-0.96857 3.87428,1.93715z" fill="#d00000" fill-rule="nonzero" stroke="none" stroke-width="0.5" stroke-linecap="butt" stroke-linejoin="miter"/><path d="M269.95,131.69283c-0.84149,1.08531 -1.78046,2.01477 -3.0486,2.41818c-0.83635,0.26606 -1.58734,0.36801 -2.25915,0.33305c-0.27395,0.10464 -0.54702,0.20031 -0.8169,0.2844c-0.85937,1.03204 -1.92451,1.77083 -3.27403,1.87792c-2.32727,0.18467 -3.87481,-0.25036 -4.91408,-1.07891c-2.36631,1.53997 -5.22047,1.99218 -7.69802,1.12102c-1.4005,0.22393 -2.96282,-0.01923 -4.66527,-0.91049c-0.32467,-0.16997 -0.60313,-0.39223 -0.84358,-0.6545c-0.4075,-0.00244 -0.82718,-0.03961 -1.25914,-0.11423c-3.42655,-0.59201 -5.07017,-3.48691 -5.70392,-6.82399c-1.00859,0.30559 -2.07221,0.4012 -3.15329,0.22844c-0.43451,-0.06943 -0.83234,-0.23378 -1.19724,-0.46806c-2.81649,0.91995 -5.8343,0.78525 -8.43967,-1.03503c-0.88764,-0.27657 -1.73789,-0.72169 -2.52102,-1.35788c-3.90803,2.91074 -9.20957,5.51386 -13.22607,2.75102c-0.49479,-0.03021 -0.98952,-0.12003 -1.47998,-0.27588c-1.18944,-0.37796 -2.36368,-0.96313 -3.39865,-1.72187c-0.65377,0.64501 -1.3716,1.23562 -2.12756,1.75822c-2.75327,4.90378 -8.68362,7.67249 -14.63519,4.45026c-1.21054,-0.65539 -2.11759,-1.76501 -2.72709,-3.11461c-0.46063,-0.28158 -0.88231,-0.57196 -1.25363,-0.8616c-0.20357,0.21575 -0.42688,0.41366 -0.67447,0.58964c-2.46907,1.75499 -4.55598,2.01054 -6.19828,1.35358c-0.80517,-0.0604 -1.65489,-0.21754 -2.51106,-0.4334c-0.55223,0.80259 -1.47721,1.32881 -2.52507,1.32881c-0.14519,0 -0.28802,-0.01011 -0.42784,-0.02965l-1.97427,-0.24678c-0.38777,0.17749 -0.81902,0.27643 -1.27338,0.27643c-0.28022,0 -0.55164,-0.03764 -0.8095,-0.10812l-3.20044,-0.80011c-2.49372,0.09931 -4.81084,-0.41946 -5.34134,-2.58606c-0.23496,-0.95957 -0.34888,-1.79853 -0.35868,-2.52979c-0.22667,-0.18783 -0.49527,-0.45196 -0.71851,-0.78932l-0.49886,-0.41572c-0.68385,-0.56173 -1.12005,-1.41391 -1.12005,-2.36796c0,-1.69159 1.37131,-3.06289 3.06289,-3.06289h3.26709v0.24082l0.61584,-0.17826c1.85023,0.77121 3.2772,1.49458 4.46599,2.28249l0.78736,0.26245l-0.06857,0.20572c0.39384,0.09924 0.77981,0.20433 1.15336,0.31179l-0.20404,-2.6524c-0.00767,-0.08844 -0.01159,-0.17797 -0.01159,-0.2684c0,-1.69159 1.37131,-3.06289 3.06289,-3.06289c0.76738,0 1.46883,0.2822 2.00627,0.74849l0.22788,0.19534c0.40789,-0.4498 0.88667,-0.82263 1.43876,-1.09539c1.50315,-0.7426 3.59673,-0.10165 5.13728,1.10028c0.55778,-0.58452 1.34446,-0.94871 2.21621,-0.94871c0.74377,0 1.42561,0.2651 1.9562,0.70597c0.18316,-0.39367 0.41017,-0.79138 0.68748,-1.19409c1.62211,-2.35555 3.79931,-4.70528 6.52498,-5.57162c1.97613,-0.62811 3.82718,-0.17008 5.44179,0.88883c0.27876,0.03037 0.56022,0.06988 0.84299,0.11808c1.50088,-0.1416 2.99838,0.2171 4.39443,1.25446c2.66531,-2.32811 6.79985,-3.22145 10.4569,-2.21581c2.51086,-0.81172 5.22565,-0.60911 7.42989,0.79225c1.93189,-2.53725 3.70774,-3.55955 5.22524,-3.31528c2.4111,-0.96158 5.13209,-0.58727 7.44588,0.61752c1.31578,-0.93827 3.00006,-1.35646 5.11018,-0.96056c2.20988,0.41462 3.44159,2.56996 4.02466,4.95669c2.17757,-0.9035 3.97467,-1.00805 5.36842,-0.46544c1.74624,-1.39226 4.14825,-2.57856 6.05391,-1.7314c1.89305,0.84156 1.3466,3.96129 1.52361,6.0254c0.06693,0.78051 0.06458,1.70484 -0.00958,2.71973c0.41356,0.21181 0.82843,0.40741 1.24612,0.56769l2.15321,-3.07602c0.55117,-0.80976 1.48039,-1.34156 2.5338,-1.34156c1.69159,0 3.06289,1.37131 3.06289,3.06289v0.77973c1.32683,-1.82838 2.9381,-3.51746 5.0243,-3.84157c1.74612,-0.27127 3.68329,1.5117 4.97115,3.61978c0.09191,-0.24504 0.21433,-0.47518 0.36262,-0.68578c0.38258,-1.18124 1.46333,-2.04819 2.75558,-2.11423c0.5632,-0.29464 1.17696,-0.51626 1.84953,-0.64568c2.79166,-1.36911 4.64727,-1.5644 5.9433,-0.88214c0.43336,-0.80321 0.86866,-1.39592 1.28509,-1.6373c3.83515,-2.22297 6.0925,-1.34949 7.30417,0.84955c0.53356,-0.06742 1.10325,-0.08209 1.71239,-0.03691c1.79552,0.13315 2.73945,1.28437 3.17743,2.82759c1.36789,0.17681 2.49127,0.65482 3.39797,1.35139c1.22844,0.15031 2.0117,0.7885 2.51494,1.70867c0.15371,-0.1358 0.29411,-0.26238 0.41702,-0.37898c0,0 0.86339,-0.7195 1.98001,-0.76381c0.53953,-0.47487 1.2475,-0.76288 2.02274,-0.76288c0.51623,0 1.00264,0.12771 1.42934,0.35327c0.4267,-0.22556 0.91311,-0.35327 1.42935,-0.35327c1.01551,0 1.9156,0.4942 2.47285,1.25524c0.90739,0.12777 1.6871,0.65313 2.15728,1.39424l0.04055,-0.01475l0.03008,0.0827l0.21647,-0.16074c0.09022,0.01474 0.18043,0.02949 0.27065,0.04423l-0.0184,-0.10119l4.43279,-0.80596c0.19632,-0.0395 0.39941,-0.06022 0.60736,-0.06022c1.69159,0 3.06289,1.37131 3.06289,3.06289c0,1.35517 -0.88009,2.50476 -2.09988,2.90844l-0.53221,0.19007c1.89155,1.05752 1.31549,3.36175 1.31549,3.36175l-3.37983,3.95358c-1.56085,-0.00197 -3.18478,0.43334 -4.68256,-0.00592c-0.06185,-0.01813 -0.12342,-0.03691 -0.18475,-0.05631l-0.00483,0.03857l-3.22678,-0.40335c-1.53172,-0.16895 -2.72318,-1.46735 -2.72329,-3.04405c-0.12408,-0.09321 -0.24085,-0.19561 -0.3493,-0.3062l-1.79652,1.19769c-0.49299,0.33912 -1.09023,0.53764 -1.73383,0.53764c-0.3124,0 -0.61388,-0.04678 -0.89781,-0.1337c-0.14824,0.94325 -0.42454,1.82691 -1.06779,2.47756c-0.35549,0.35957 -0.74198,0.73964 -1.15229,1.11446c-0.35271,0.56456 -0.88422,1.00595 -1.51526,1.24486c-1.44483,1.03915 -3.04509,1.72571 -4.57237,1.24143c-0.85239,-0.27028 -1.50714,-0.69547 -2.00147,-1.23084c-1.4396,0.27462 -2.65256,0.27761 -3.73123,0.02373c-0.31021,0.10576 -0.64284,0.16314 -0.98885,0.16314c-0.62251,0 -1.20166,-0.18572 -1.68503,-0.50476c-0.2446,0.06292 -0.50103,0.09638 -0.76528,0.09638c-0.26089,0 -0.51416,-0.03261 -0.75597,-0.09399c-0.25815,0.38641 -0.52668,0.69066 -0.80345,0.87908c-2.06593,1.40637 -4.89326,3.14793 -7.18345,2.14747c-0.46355,-0.20249 -0.93208,-1.06557 -1.36691,-2.25528c-0.28942,0.09065 -0.59733,0.13952 -0.91664,0.13952c-1.69159,0 -3.06289,-1.37131 -3.06289,-3.06289v-0.67385c-0.19794,0.04017 -0.40278,0.06127 -0.61258,0.06127c-0.23608,0 -0.4659,-0.02671 -0.68664,-0.07727c-0.01391,0.00818 -0.02793,0.01644 -0.0421,0.0248zM227.43777,120.56849c-0.06612,-0.52172 -0.11048,-1.06749 -0.13131,-1.62812c-0.53372,0.754 -1.20132,1.47035 -1.88841,2.12637c0.01078,0.0185 0.02181,0.03683 0.0331,0.055c0.40231,0.0055 0.86985,-0.07444 1.41237,-0.25673c0.20567,-0.0691 0.39568,-0.17211 0.57423,-0.2965zM209.60368,120.50384c1.20823,-1.21587 2.17354,-2.7894 2.18065,-3.71017c-1.07406,1.28053 -1.92799,2.948 -2.18092,3.67643c0.00006,0.01126 0.00015,0.02251 0.00028,0.03374zM243.05702,117.24455c-0.21269,0.02629 -0.42288,0.10223 -0.585,0.2231c0.05846,0.49262 0.0688,0.99343 0.03504,1.49616c0.11747,-0.3497 0.23277,-0.68951 0.34341,-1.0174c0.07696,-0.22809 0.14467,-0.46283 0.20656,-0.70187zM227.95339,113.16263c0.00016,-0.00056 0.00031,-0.00114 0.00047,-0.0017c-0.00033,-0.00009 -0.00065,-0.00018 -0.00098,-0.00028c0.00017,0.00066 0.00034,0.00132 0.00051,0.00198zM194.59532,118.50873c-0.01775,-0.03227 -0.03582,-0.06447 -0.05423,-0.09662c-0.00271,0.00298 -0.00542,0.00594 -0.00811,0.00892c0.02093,0.0291 0.0417,0.05833 0.06234,0.08768z" fill="#d00000" fill-rule="nonzero" stroke="none" stroke-width="0.5" stroke-linecap="butt" stroke-linejoin="miter"/><path d="M315.82079,189.63329c0.06855,-0.18316 0.14315,-0.36315 0.22319,-0.54029l-0.10944,-0.03283l1.20538,-4.01795c0.35657,-1.29638 1.54382,-2.24869 2.95349,-2.24869c1.69159,0 3.06289,1.37131 3.06289,3.06289v3.26709h-0.07313l0.06845,0.16938c-0.51726,4.49235 1.15414,10.73733 -1.2787,14.87382c0.01001,1.41014 -0.09096,2.60732 -0.4321,3.2211c-0.11496,0.20683 -0.23893,0.407 -0.3707,0.60142l0.12927,0.06463l-1.60387,3.20773c-0.49112,1.03602 -1.5465,1.75248 -2.76921,1.75248c-0.0061,0 -0.01219,-0.00001 -0.01828,-0.00006c-1.49588,0.82959 -2.98223,1.86663 -4.50559,2.09791l-0.66063,0.99096c-0.54535,0.84445 -1.49483,1.40343 -2.57484,1.40343c-0.16233,0 -0.32173,-0.01263 -0.47725,-0.03696c-2.61722,1.12779 -4.26503,0.06834 -5.18351,-1.76984l0.00065,0.50267c-1.93928,0.96737 -3.71052,3.16511 -5.76341,3.30071c-0.73491,0.91514 -1.56584,1.61346 -2.67968,1.67298c-3.62574,0.19373 -5.09298,-1.61348 -5.68906,-3.85796c-0.87289,0.29644 -1.83967,0.42425 -2.78259,0.37764c-0.6213,0.33129 -1.21607,0.54945 -1.74836,0.62225c-1.99696,0.27311 -3.42765,0.27636 -4.42246,0.08737c-0.3355,0.13967 -0.6976,0.20216 -1.09481,0.16279c-2.23034,-0.22112 -4.18853,-1.79864 -5.66975,-3.70714c-0.3601,0.16727 -0.73079,0.33005 -1.10499,0.48161c-1.27502,1.23163 -2.59208,2.27874 -4.19754,2.05999c-0.03511,-0.00479 -0.06981,-0.01032 -0.10406,-0.01658c-0.33322,0.13425 -0.66275,0.23957 -0.98565,0.31604c-1.47069,1.62664 -3.52328,2.58369 -6.01119,2.20659c-1.55117,-0.23511 -2.71951,-1.05881 -3.55179,-2.1904c-1.77485,-0.07007 -3.35441,-0.94071 -4.35377,-2.4616c-0.79206,0.55258 -1.61639,0.83343 -2.51084,0.52362c-0.61031,-0.2114 -1.18899,-0.61358 -1.69894,-1.13588c-1.21969,0.22962 -2.41284,0.30644 -3.50753,-0.1835c-0.30483,-0.13643 -0.62263,-0.29671 -0.94353,-0.47776c-0.81429,0.04948 -1.59339,-0.06534 -2.34103,-0.29735c-1.09846,1.93717 -2.98892,2.57437 -6.22141,-0.5293c-1.92092,0.2535 -4.00736,0.38539 -5.78651,-0.19855c-0.16672,0.12498 -0.35272,0.22041 -0.56471,0.27608c-0.85511,0.22453 -1.74423,0.17681 -2.63122,-0.00124c-1.53324,1.01471 -3.33483,1.67638 -5.07613,1.83135c-2.8381,1.48745 -6.17476,1.32426 -8.06765,-2.36661c-1.22654,0.01259 -2.57183,0.31217 -3.78584,0.29447c-0.61951,0.69446 -1.31666,1.25773 -2.19953,1.50724c-1.82497,0.51575 -4.64811,-0.09148 -6.66783,-1.52069c-0.47215,0.67879 -0.98708,1.29858 -1.53134,1.82851c-1.52938,2.86553 -3.96133,4.91183 -7.01089,4.2291c-1.20494,-0.26976 -2.01249,-1.31782 -2.5668,-2.57266c-0.26962,0.10468 -0.52144,0.17407 -0.75138,0.20219c-0.43309,0.05296 -0.89161,0.05039 -1.35587,-0.00322c-0.09905,0.24631 -0.21798,0.4987 -0.35819,0.7574c-2.25395,4.15894 -9.28182,4.4118 -12.09966,0.96334c-1.1789,-1.44272 -1.32399,-3.63075 -1.04448,-5.50859c-0.13521,-0.14267 -0.25683,-0.29835 -0.36279,-0.46495c-0.86756,0.60459 -1.90593,0.60459 -1.90593,0.60459c-1.7201,-0.12799 -3.67834,0.49864 -5.16028,-0.38396c-0.01452,-0.00865 -0.02896,-0.01738 -0.04331,-0.02621c-0.035,0.00119 -0.07015,0.00178 -0.10544,0.00178c-0.03845,0 -0.07672,-0.00071 -0.11482,-0.00211l0.18881,0.9381c-0.13701,-0.08173 -0.27399,-0.16347 -0.411,-0.2452c-0.38284,1.25497 -1.54985,2.16792 -2.93007,2.16792c-1.22271,0 -2.27809,-0.71647 -2.76921,-1.75248l-1.60388,-3.20773l0.09287,-0.04643c-0.1036,-0.15348 -0.20231,-0.31066 -0.29553,-0.472c-0.54379,-0.9412 -0.49417,-2.07721 -0.47417,-3.20351c-0.3878,-0.39701 -0.66861,-0.89902 -0.79576,-1.45937l-0.80123,-3.20493l0.23267,-0.05817l-0.31854,-0.50007c0.14216,-1.2772 0.28431,-2.5544 0.42647,-3.83161c0,0 0.05043,-0.40341 0.2615,-0.89791c0.00203,-0.2091 0.01294,-0.42061 0.03031,-0.63388c-0.13795,-0.27912 -0.23464,-0.58228 -0.28207,-0.90152l-0.80849,-4.85096l0.5661,-0.09435c-0.37318,-1.23409 -0.60297,-2.49313 -0.60607,-3.7782l0.0356,-0.09979l-0.03052,-0.00203l0.08343,-1.25146c-0.01863,-0.04009 -0.03685,-0.08046 -0.05462,-0.12111c-0.63986,-1.46352 0.22999,-3.18029 0.3812,-4.77651c0.00172,-0.02205 0.00365,-0.04404 0.00583,-0.06597c0.00033,-0.00392 0.00065,-0.00784 0.00096,-0.01176l0.00026,-0.00017c0.15932,-1.54192 1.4625,-2.74439 3.04654,-2.74439c0.3371,0 0.66149,0.05446 0.96482,0.15506l0.26124,-0.16862c0,0 3.06289,0 3.06289,3.06289c0,0.94567 -0.29198,1.59937 -0.69563,2.05123l0.21363,0.95675l-0.13804,0.03082c0.06441,0.10029 0.12879,0.2006 0.1932,0.30089l-0.1235,0.33577h0.14195v0.51286c0.25976,0.44998 0.40839,0.97216 0.40839,1.52906v5.71741c0,1.84841 -0.05166,3.46864 -0.16045,5.01842c0.72529,-0.54146 1.92993,-0.73094 3.95831,-0.30453c1.7311,0.36392 8.03251,6.57839 9.90137,8.2015c1.78088,-1.11359 4.79091,-0.33955 6.56912,1.22409c2.57267,-3.42381 7.46084,-5.75287 11.48968,-5.07878l2.64842,-1.20383c0.40156,-0.19338 0.85177,-0.30174 1.32729,-0.30174c1.32607,0 2.45533,0.84271 2.88142,2.0218c0.0251,0.02405 0.04986,0.04868 0.07426,0.07388c0.26817,0.27712 0.4821,0.60533 0.64607,0.97475l0.86067,-0.53792c0.47899,-0.31037 1.05012,-0.49059 1.66337,-0.49059c1.01985,0 1.92326,0.49844 2.47996,1.26499l0.46111,-0.55333c0.56173,-0.68385 1.41391,-1.12005 2.36795,-1.12005c1.43441,0 2.63852,0.98603 2.9715,2.31728c0.52662,-0.42753 1.19796,-0.68374 1.92913,-0.68374c0.19808,0 0.39178,0.01881 0.5794,0.05473c0.15383,-0.42071 0.40995,-0.73754 0.85315,-0.86447c0.65726,-0.18823 0.98365,0.46485 1.297,1.24423c0.57864,-0.35365 1.22249,-0.67583 1.909,-0.96071c1.06454,-1.6312 3.01614,-1.83892 4.90552,-1.27555c2.34779,-0.2842 4.63105,-0.0962 6.19886,0.73288c1.60026,-0.92359 3.36463,-1.55154 5.11803,-1.38124c1.87142,0.18176 5.17603,1.79048 6.97399,3.8468c1.32821,-0.76123 2.82605,-1.13296 4.14259,-0.8404c1.26902,0.28201 2.18278,1.42561 2.71375,2.82612l1.50936,-0.37734l0.41447,-1.79604c0.28999,-1.39 1.52221,-2.43417 2.99829,-2.43417c1.55691,0 2.84251,1.16163 3.03735,2.66548l0.43314,-0.72191c0.52906,-0.91756 1.52005,-1.53518 2.65528,-1.53518c1.00116,0 1.89012,0.48034 2.44902,1.22314c0.15869,0.03281 0.3142,0.07563 0.46567,0.129c0.48859,0.17216 0.93617,0.38715 1.34405,0.63899l1.25369,-2.08948c0.52906,-0.91756 1.52005,-1.53518 2.6553,-1.53518c1.58753,0 2.89298,1.20778 3.04757,2.75461l0.10484,0.92297c0.03805,-0.00141 0.07628,-0.00211 0.11467,-0.00211c0.45262,0 0.88232,0.09818 1.26896,0.27441c0.3753,-0.51591 0.72992,-1.03688 1.01665,-1.57445c0.65476,0.10261 1.34634,0.12673 2.04887,0.12749c1.40034,-2.602 3.48659,-4.7232 5.79294,-5.32207c1.61687,-0.41984 3.26905,0.60136 4.73722,1.61528c0.84301,0.11932 1.80591,0.48013 2.90594,1.14569c0.42531,-0.22366 0.90966,-0.35022 1.42357,-0.35022c1.69159,0 3.06289,1.37131 3.06289,3.06289c0,0.19143 -0.01756,0.37876 -0.05116,0.56046l-0.3123,1.87384l3.41059,-3.06953c0.54372,-0.49344 1.26561,-0.79412 2.0577,-0.79412c1.13935,0 2.1334,0.62211 2.66102,1.54517l0.02688,-0.1613c0.2193,-1.47636 1.49212,-2.60902 3.0295,-2.60902c1.69159,0 3.06289,1.37131 3.06289,3.06289c0,0.17733 -0.01507,0.35114 -0.044,0.52021l-0.01393,0.09049c0.5509,-0.79808 1.10178,-1.59614 1.65269,-2.39422l0.96769,3.41935l0.46627,-0.59195c0.14654,0.65883 0.28017,1.25957 0.4009,1.80224l0.5874,-0.78321c-1.51978,-1.52914 -0.3464,-3.58257 -0.3464,-3.58257l1.55112,-2.70439c0.06704,-0.1522 0.13141,-0.29519 0.19315,-0.4304c0.08113,-0.76262 0.17733,-1.50835 0.25467,-2.2052l-0.34127,-3.41268c-0.01275,-0.1135 -0.0193,-0.22886 -0.0193,-0.34576c0,-0.71787 0.24697,-1.37806 0.66057,-1.90024c-0.02218,-0.43211 0.01834,-0.85581 0.17162,-1.26545zM169.4741,205.80399l-0.03132,0.0094c0.11988,0.56722 0.14697,1.2196 0.62433,1.45887c0.46603,0.23359 0.99876,0.01212 1.52786,-0.18445c-0.86921,-1.09937 -1.6975,-2.24872 -2.69156,-3.18616z" fill="#d00000" fill-rule="nonzero" stroke="none" stroke-width="0.5" stroke-linecap="butt" stroke-linejoin="miter"/><path d="M374.01758,91.79129c0,1.56733 -1.17724,2.8597 -2.69573,3.04111l-1.1671,2.91774c-0.51165,5.20052 -5.12505,8.62311 -7.62104,12.80361c-2.61703,4.38322 -5.15332,9.19016 -9.29662,12.44293c-2.57985,2.02536 -5.84283,3.60646 -8.73377,5.27613c0.29525,0.81968 0.32932,1.93563 -0.78664,3.05159c-2.16578,2.16578 -4.33158,0 -4.33158,0l-1.50968,-1.55321c-0.81678,-0.61258 -1.63354,-1.22516 -2.45032,-1.83774c0,0 -2.45032,-1.83774 -0.61258,-4.28805c1.83774,-2.45032 4.28805,-0.61258 4.28805,-0.61258c0.33572,0.25179 0.67145,0.50358 1.00717,0.75538l0.47987,-0.3189c2.86753,-1.72051 6.22946,-3.26506 8.87959,-5.30099c4.46884,-3.43311 6.58733,-9.14858 9.84847,-13.51286c0.30207,-0.40427 0.75758,-1.00261 1.25712,-1.66928c0.01071,-0.07374 0.02405,-0.14664 0.03992,-0.21857l0.60017,-3.00088c0.81943,-4.09716 1.50552,-8.95446 3.20948,-12.75536c0.4709,-1.0504 0.93162,-2.18459 1.60257,-3.12442c-1.61445,-0.81308 -3.46756,-2.01752 -3.99706,-2.33339c0,0 -2.62641,-1.57585 -1.05056,-4.20225c1.57585,-2.62641 4.20225,-1.05057 4.20225,-1.05057c2.73454,1.65167 10.10255,3.75688 10.03671,7.92864c-0.00894,0.56659 -0.32175,0.97066 -0.78165,1.30055c0.85407,0.54353 1.42068,1.49854 1.42068,2.58589c0,1.29867 -0.80822,2.40855 -1.94912,2.85409c0.07259,0.2614 0.11138,0.53686 0.11138,0.82138z" fill="#d00000" fill-rule="nonzero" stroke="none" stroke-width="0.5" stroke-linecap="butt" stroke-linejoin="miter"/><path d="M240.59736,-27.86508c17.14876,0 32.68978,4.53591 43.94125,15.81981c11.25282,11.28525 18.21878,26.8695 18.21878,44.06825c0,17.19739 -6.96596,32.783 -18.21878,44.06825c-11.25147,11.28389 -26.79248,18.26877 -43.94125,18.26877c-17.14876,0 -32.68843,-6.98488 -43.94125,-18.26877c-11.25282,-11.28525 -18.21878,-26.87084 -18.21878,-44.06825c0,-17.19875 6.96596,-32.783 18.21878,-44.06825c11.25282,-11.28389 26.79248,-15.81981 43.94125,-15.81981z" fill="#d00000" fill-rule="nonzero" stroke="#000000" stroke-width="2" stroke-linecap="butt" stroke-linejoin="miter"/><g fill-rule="nonzero" stroke="#000000" stroke-width="2" stroke-linecap="butt" stroke-linejoin="miter"><path d="M238.40589,25.66789c0,11.71764 -6.50858,21.21668 -14.53734,21.21668c-8.02876,0 -14.53733,-9.49901 -14.53733,-21.21668c0,-11.71764 6.50859,-21.21668 14.53733,-21.21668c8.02876,0 14.53734,9.49901 14.53734,21.21668z" fill="#ffffff"/><path d="M234.81042,25.75812c0,1.84835 -1.02667,3.34673 -2.29312,3.34673c-1.26648,0 -2.29315,-1.4984 -2.29315,-3.34673c0,-1.84835 1.02667,-3.34674 2.29315,-3.34674c1.26648,0 2.29314,1.49838 2.29314,3.34674z" fill="#000000"/></g><path d="M293.14286,59.13515c0.07798,3.68887 -1.24933,6.97493 -5.95228,12.47255c-10.38966,12.14524 -29.25139,21.83697 -47.69058,21.83697c-17.25204,0 -34.94597,-9.46673 -44.78528,-20.33292c-5.52112,-6.09734 -6.04805,-8.38157 -6.04805,-13.50041c0,-8.07959 6.50375,-11.93653 20.63048,-11.95258c16.19822,0.27768 20.19666,6.45257 31.20285,6.45257c10.88414,0 17.49501,-7.07857 32.2138,-6.75737c12.19918,0.26621 16.84029,1.29594 18.82706,4.69492c0.99463,1.70161 1.69869,4.3717 1.602,7.08627z" fill="#ffffff" fill-rule="nonzero" stroke="none" stroke-width="0" stroke-linecap="butt" stroke-linejoin="miter"/><g fill-rule="nonzero" stroke="#000000" stroke-width="2" stroke-linecap="butt" stroke-linejoin="miter"><path d="M257.32617,4.58616c8.02876,0 14.53735,9.49901 14.53735,21.21668c0,11.71764 -6.50861,21.21668 -14.53735,21.21668c-8.02876,0 -14.53732,-9.49901 -14.53732,-21.21668c0,-11.71764 6.50858,-21.21668 14.53732,-21.21668z" data-paper-data="{&quot;index&quot;:null}" fill="#ffffff"/><path d="M248.67746,22.36583c1.26648,0 2.29314,1.49838 2.29314,3.34674c0,1.84835 -1.02666,3.34673 -2.29314,3.34673c-1.26648,0 -2.29314,-1.49838 -2.29314,-3.34673c0,-1.84835 1.02667,-3.34674 2.29314,-3.34674z" data-paper-data="{&quot;index&quot;:null}" fill="#000000"/></g><path d="M199.68784,66.5638l29.45268,3.15243" fill="none" fill-rule="nonzero" stroke="#000000" stroke-width="2" stroke-linecap="round" stroke-linejoin="miter"/><path d="M194.68306,46.84462l1.83774,8.88239" fill="none" fill-rule="nonzero" stroke="#000000" stroke-width="2" stroke-linecap="round" stroke-linejoin="miter"/><path d="M205.40319,51.74525l0.30629,5.20692" fill="none" fill-rule="nonzero" stroke="#000000" stroke-width="2" stroke-linecap="round" stroke-linejoin="miter"/><path d="M211.22269,74.41066l0.91887,3.98176" fill="none" fill-rule="nonzero" stroke="#000000" stroke-width="2" stroke-linecap="round" stroke-linejoin="miter"/><path d="M219.4925,53.88927l0.30629,3.67547" fill="none" fill-rule="nonzero" stroke="#000000" stroke-width="2" stroke-linecap="round" stroke-linejoin="miter"/><path d="M225.61829,82.68047l-0.91887,-3.67547" fill="none" fill-rule="nonzero" stroke="#000000" stroke-width="2" stroke-linecap="round" stroke-linejoin="miter"/><path d="M239.09503,61.31695v4.28805" fill="none" fill-rule="nonzero" stroke="#000000" stroke-width="2" stroke-linecap="round" stroke-linejoin="miter"/><path d="M240.0139,71.65406l1.22516,5.20692" fill="none" fill-rule="nonzero" stroke="#000000" stroke-width="2" stroke-linecap="round" stroke-linejoin="miter"/><path d="M237.56358,83.59935v3.67547" fill="none" fill-rule="nonzero" stroke="#000000" stroke-width="2" stroke-linecap="round" stroke-linejoin="miter"/><path d="M229.60006,58.48361l0.30629,-3.36918" fill="none" fill-rule="nonzero" stroke="#000000" stroke-width="2" stroke-linecap="round" stroke-linejoin="miter"/><path d="M191.31388,61.8528l1.83774,3.36918" fill="none" fill-rule="nonzero" stroke="#000000" stroke-width="2" stroke-linecap="round" stroke-linejoin="miter"/><path d="M252.37364,61.42953l-0.30629,-3.67547" fill="none" fill-rule="nonzero" stroke="#000000" stroke-width="2" stroke-linecap="round" stroke-linejoin="miter"/><path d="M251.3466,68.59116l-0.61258,4.90063" fill="none" fill-rule="nonzero" stroke="#000000" stroke-width="2" stroke-linecap="round" stroke-linejoin="miter"/><path d="M249.50887,85.13079v-2.7566" fill="none" fill-rule="nonzero" stroke="#000000" stroke-width="2" stroke-linecap="round" stroke-linejoin="miter"/><path d="M264.51705,55.72701v3.67547" fill="none" fill-rule="nonzero" stroke="#000000" stroke-width="2" stroke-linecap="round" stroke-linejoin="miter"/><path d="M263.90443,70.73519l-0.30629,-3.36918" fill="none" fill-rule="nonzero" stroke="#000000" stroke-width="2" stroke-linecap="round" stroke-linejoin="miter"/><path d="M260.22897,82.68048l0.30629,-5.51321" fill="none" fill-rule="nonzero" stroke="#000000" stroke-width="2" stroke-linecap="round" stroke-linejoin="miter"/><path d="M274.93084,68.59116v-4.28805" fill="none" fill-rule="nonzero" stroke="#000000" stroke-width="2" stroke-linecap="round" stroke-linejoin="miter"/><path d="M276.46232,54.50185l-0.61258,3.98176" fill="none" fill-rule="nonzero" stroke="#000000" stroke-width="2" stroke-linecap="round" stroke-linejoin="miter"/><path d="M271.56165,79.00501l-0.91887,3.06289" fill="none" fill-rule="nonzero" stroke="#000000" stroke-width="2" stroke-linecap="round" stroke-linejoin="miter"/><path d="M287.48874,56.64588l0.91887,-4.59434" fill="none" fill-rule="nonzero" stroke="#000000" stroke-width="2" stroke-linecap="round" stroke-linejoin="miter"/><path d="M283.76223,67.05972l1.02096,-4.90063" fill="none" fill-rule="nonzero" stroke="#000000" stroke-width="2" stroke-linecap="round" stroke-linejoin="miter"/><path d="M161.57539,378.3259v-37.33333h69.66667v37.33333z" fill="#d00000" fill-rule="nonzero" stroke="none" stroke-width="NaN" stroke-linecap="butt" stroke-linejoin="miter"/><path d="M248.10872,377.99257c0,0 -0.03263,-6.09023 -0.05546,-10.35179c-0.03686,-6.88009 -0.14454,-26.98154 -0.14454,-26.98154h69.66667v37.33333z" fill="#d00000" fill-rule="nonzero" stroke="none" stroke-width="NaN" stroke-linecap="butt" stroke-linejoin="miter"/><path d="M180.57539,14.66826l-4.33333,-41.5l18.74884,6.54685l4.37461,-24.099l25.94272,12.45503l14.23809,-18.69704l18.05164,19.00598l27.19777,-11.53188l4.14784,24.52549l20.29849,-2.53876l-8.75,37.33333l-19.23116,-20.2268l-8.58288,2.37315l-3.7185,-13.05239l-15.61416,5.50637l-12.08682,-9.48316l-12.01648,9.88283l-13.31524,-4.9159l-11.61621,12.80109l-7.17844,-2.04511z" fill="#242424" fill-rule="nonzero" stroke="#000000" stroke-width="2" stroke-linecap="butt" stroke-linejoin="miter"/><path d="M188.57378,-2.49841l-4.33333,-44.53334l39.33333,20.86667z" fill="#d00000" fill-rule="nonzero" stroke="#000000" stroke-width="2" stroke-linecap="butt" stroke-linejoin="miter"/><path d="M256.90711,-26.16508l39.33333,-20.86666l-4.33334,44.53333z" data-paper-data="{&quot;index&quot;:null}" fill="#d00000" fill-rule="nonzero" stroke="#000000" stroke-width="2" stroke-linecap="butt" stroke-linejoin="miter"/><path d="M192.28535,-11.63174l-2.71158,-27.86667l24.61278,13.05728z" fill="#ff86fd" fill-rule="nonzero" stroke="#000000" stroke-width="2" stroke-linecap="butt" stroke-linejoin="miter"/><path d="M265.90711,-25.97446l24.61278,-13.05729l-2.71158,27.86667z" data-paper-data="{&quot;index&quot;:null}" fill="#ff86fd" fill-rule="nonzero" stroke="#000000" stroke-width="2" stroke-linecap="butt" stroke-linejoin="miter"/><path d="M309.52574,193.62056c0,31.85276 -31.19177,56.65373 -69.66877,56.65373c-38.47699,0 -70.68955,-27.18281 -70.68955,-59.03556c0,-2.27906 -0.22362,-8.68775 -0.11519,-15.10116c0.09413,-5.56864 0.52234,-11.39203 0.52234,-11.39203c0,0 0.2098,-25.33552 13.90133,-32.14965c15.02113,-7.47586 44.10832,-6.61988 55.53408,-6.57019c12.20456,0.05309 38.51297,-1.55003 54.05725,6.10306c12.68643,6.24605 16.10898,32.17027 16.10898,32.17027c0,0 0.34953,14.96556 0.34953,29.32152z" fill="#ffffff" fill-rule="nonzero" stroke="#000000" stroke-width="0" stroke-linecap="butt" stroke-linejoin="miter"/><g fill="none" fill-rule="evenodd" stroke="#000000" stroke-width="2" stroke-linecap="round" stroke-linejoin="round"><path d="M315.40004,41.77076c-9.30784,7.52549 -23.56667,7.72353 -23.56667,7.72353"/><path d="M312.82553,63.95115c-12.47647,0.9902 -20.2,-2.77255 -20.2,-2.77255"/></g><path d="M240.69526,46.85252c4.12055,0 8.43733,0.39244 8.63354,1.76596c0.19621,2.74703 -4.12204,8.6161 -8.5115,8.18732c-3.5319,0.39243 -9.14801,-4.26299 -9.14801,-7.40246c-0.19621,-2.3546 5.10164,-2.55082 9.02597,-2.55082z" fill="#000000" fill-rule="evenodd" stroke="#000000" stroke-width="1.2" stroke-linecap="round" stroke-linejoin="round"/><g data-paper-data="{&quot;index&quot;:null}" fill="none" fill-rule="evenodd" stroke="#000000" stroke-width="2" stroke-linecap="round" stroke-linejoin="round"><path d="M188.3167,47.82762c0,0 -14.25883,-0.19804 -23.56667,-7.72353"/><path d="M187.52454,59.51193c0,0 -7.72353,3.76275 -20.2,2.77255"/></g><g fill="none" fill-rule="nonzero" stroke="#000000" stroke-width="2" stroke-linecap="round" stroke-linejoin="miter"><g><path d="M336.33333,385.79257c0,0 7.07737,5.42433 9.5669,10.3361c2.48953,4.91177 2.76644,13.99724 2.76644,13.99724"/><path d="M327,386.45924c0,0 7.57222,7.31487 9.15233,11.20871c1.52934,3.76875 -0.819,11.79128 -0.819,11.79128"/></g><g><path d="M317.33333,387.45923c0,0 6.90556,7.31488 8.48567,11.20872c1.52934,3.76875 -2.15233,11.45795 -2.15233,11.45795"/></g></g><g data-paper-data="{&quot;index&quot;:null}" fill="none" fill-rule="nonzero" stroke="#000000" stroke-width="2" stroke-linecap="round" stroke-linejoin="miter"><g><path d="M130,409.79257c0,0 0.2769,-9.08547 2.76644,-13.99724c2.48953,-4.91177 9.5669,-10.33609 9.5669,-10.33609"/><path d="M143.33333,409.1259c0,0 -2.34834,-8.02254 -0.819,-11.79128c1.58011,-3.89384 9.15233,-11.20871 9.15233,-11.20871"/></g><g><path d="M154.99999,409.79257c0,0 -3.68168,-7.6892 -2.15233,-11.45795c1.58011,-3.89384 8.48567,-11.20872 8.48567,-11.20872"/></g></g></g></g></svg>